<mxfile host="app.diagrams.net" modified="2023-08-02T18:52:16.475Z" agent="Mozilla/5.0 (Macintosh; Intel Mac OS X 10_15_7) AppleWebKit/605.1.15 (KHTML, like Gecko) Version/16.5.2 Safari/605.1.15" etag="PeQKrhOaRm46sMt1ZDSl" version="21.6.6" type="device">
  <diagram name="Page-1" id="SsyGEyBWX0bK2Y6TnU8q">
    <mxGraphModel dx="1193" dy="804" grid="1" gridSize="10" guides="1" tooltips="1" connect="1" arrows="1" fold="1" page="1" pageScale="1" pageWidth="827" pageHeight="1169" math="0" shadow="0">
      <root>
        <mxCell id="0" />
        <mxCell id="1" parent="0" />
        <mxCell id="cXLPeXrp7or8tHIXApUD-1" value="" style="rounded=1;arcSize=2;dashed=0;fillColor=none;gradientColor=none;strokeWidth=2;" vertex="1" parent="1">
          <mxGeometry x="270" y="240" width="530" height="320" as="geometry" />
        </mxCell>
        <mxCell id="cXLPeXrp7or8tHIXApUD-2" value="" style="dashed=0;html=1;shape=mxgraph.aws3.cloud;fillColor=#F58536;gradientColor=none;dashed=0;" vertex="1" parent="1">
          <mxGeometry x="290" y="220" width="52" height="36" as="geometry" />
        </mxCell>
        <mxCell id="cXLPeXrp7or8tHIXApUD-12" style="edgeStyle=orthogonalEdgeStyle;rounded=0;orthogonalLoop=1;jettySize=auto;html=1;" edge="1" parent="1" source="cXLPeXrp7or8tHIXApUD-3" target="cXLPeXrp7or8tHIXApUD-5">
          <mxGeometry relative="1" as="geometry" />
        </mxCell>
        <mxCell id="cXLPeXrp7or8tHIXApUD-13" style="edgeStyle=orthogonalEdgeStyle;rounded=0;orthogonalLoop=1;jettySize=auto;html=1;" edge="1" parent="1" source="cXLPeXrp7or8tHIXApUD-3" target="cXLPeXrp7or8tHIXApUD-4">
          <mxGeometry relative="1" as="geometry">
            <Array as="points">
              <mxPoint x="530" y="350" />
              <mxPoint x="350" y="350" />
            </Array>
          </mxGeometry>
        </mxCell>
        <mxCell id="cXLPeXrp7or8tHIXApUD-14" style="edgeStyle=orthogonalEdgeStyle;rounded=0;orthogonalLoop=1;jettySize=auto;html=1;" edge="1" parent="1" source="cXLPeXrp7or8tHIXApUD-3" target="cXLPeXrp7or8tHIXApUD-7">
          <mxGeometry relative="1" as="geometry">
            <Array as="points">
              <mxPoint x="530" y="350" />
              <mxPoint x="710" y="350" />
            </Array>
          </mxGeometry>
        </mxCell>
        <mxCell id="cXLPeXrp7or8tHIXApUD-3" value="" style="outlineConnect=0;dashed=0;verticalLabelPosition=bottom;verticalAlign=top;align=center;html=1;shape=mxgraph.aws3.application_load_balancer;fillColor=#F58534;gradientColor=none;" vertex="1" parent="1">
          <mxGeometry x="495.5" y="256" width="69" height="72" as="geometry" />
        </mxCell>
        <mxCell id="cXLPeXrp7or8tHIXApUD-4" value="" style="sketch=0;outlineConnect=0;fontColor=#232F3E;gradientColor=none;fillColor=#00994D;strokeColor=none;dashed=0;verticalLabelPosition=bottom;verticalAlign=top;align=center;html=1;fontSize=12;fontStyle=0;aspect=fixed;pointerEvents=1;shape=mxgraph.aws4.opensearch_service_cluster_administrator_node;" vertex="1" parent="1">
          <mxGeometry x="310" y="400" width="80" height="80" as="geometry" />
        </mxCell>
        <mxCell id="cXLPeXrp7or8tHIXApUD-5" value="" style="sketch=0;outlineConnect=0;fontColor=#232F3E;gradientColor=none;fillColor=#6600CC;strokeColor=none;dashed=0;verticalLabelPosition=bottom;verticalAlign=top;align=center;html=1;fontSize=12;fontStyle=0;aspect=fixed;pointerEvents=1;shape=mxgraph.aws4.opensearch_service_cluster_administrator_node;" vertex="1" parent="1">
          <mxGeometry x="490" y="400" width="80" height="80" as="geometry" />
        </mxCell>
        <mxCell id="cXLPeXrp7or8tHIXApUD-7" value="" style="sketch=0;outlineConnect=0;fontColor=#232F3E;gradientColor=none;fillColor=#3333FF;strokeColor=none;dashed=0;verticalLabelPosition=bottom;verticalAlign=top;align=center;html=1;fontSize=12;fontStyle=0;aspect=fixed;pointerEvents=1;shape=mxgraph.aws4.opensearch_service_cluster_administrator_node;" vertex="1" parent="1">
          <mxGeometry x="670" y="400" width="80" height="80" as="geometry" />
        </mxCell>
        <mxCell id="cXLPeXrp7or8tHIXApUD-8" value="TargetGroup:&lt;br&gt;[ServiceA-eks]&lt;br&gt;-&amp;gt; mode &lt;b&gt;Instance&lt;/b&gt;" style="text;html=1;strokeColor=none;fillColor=none;align=center;verticalAlign=middle;whiteSpace=wrap;rounded=0;fontFamily=Comic Sans MS;fontSize=16;" vertex="1" parent="1">
          <mxGeometry x="274" y="487" width="150" height="60" as="geometry" />
        </mxCell>
        <mxCell id="cXLPeXrp7or8tHIXApUD-10" value="TargetGroup:&lt;br&gt;[ServiceB-eks]&lt;br&gt;-&amp;gt; mode &lt;b&gt;Instance&lt;/b&gt;" style="text;html=1;strokeColor=none;fillColor=none;align=center;verticalAlign=middle;whiteSpace=wrap;rounded=0;fontFamily=Comic Sans MS;fontSize=16;" vertex="1" parent="1">
          <mxGeometry x="458" y="488" width="150" height="60" as="geometry" />
        </mxCell>
        <mxCell id="cXLPeXrp7or8tHIXApUD-11" value="TargetGroup:&lt;br&gt;[ServiceC-eks]&lt;br&gt;-&amp;gt; mode &lt;b&gt;IP&lt;/b&gt;" style="text;html=1;strokeColor=none;fillColor=none;align=center;verticalAlign=middle;whiteSpace=wrap;rounded=0;fontFamily=Comic Sans MS;fontSize=16;" vertex="1" parent="1">
          <mxGeometry x="638" y="489" width="150" height="60" as="geometry" />
        </mxCell>
        <mxCell id="cXLPeXrp7or8tHIXApUD-24" style="edgeStyle=orthogonalEdgeStyle;rounded=0;orthogonalLoop=1;jettySize=auto;html=1;" edge="1" parent="1" source="cXLPeXrp7or8tHIXApUD-15" target="cXLPeXrp7or8tHIXApUD-3">
          <mxGeometry relative="1" as="geometry" />
        </mxCell>
        <mxCell id="cXLPeXrp7or8tHIXApUD-15" value="" style="image;aspect=fixed;perimeter=ellipsePerimeter;html=1;align=center;shadow=0;dashed=0;spacingTop=3;image=img/lib/active_directory/internet_globe.svg;" vertex="1" parent="1">
          <mxGeometry x="505" y="130" width="50" height="50" as="geometry" />
        </mxCell>
        <mxCell id="cXLPeXrp7or8tHIXApUD-17" value="rule:/*" style="text;html=1;strokeColor=none;fillColor=none;align=center;verticalAlign=middle;whiteSpace=wrap;rounded=0;fontFamily=Comic Sans MS;fontSize=16;" vertex="1" parent="1">
          <mxGeometry x="303" y="359" width="80" height="30" as="geometry" />
        </mxCell>
        <mxCell id="cXLPeXrp7or8tHIXApUD-18" value="rule:/products" style="text;html=1;strokeColor=none;fillColor=none;align=center;verticalAlign=middle;whiteSpace=wrap;rounded=0;fontFamily=Comic Sans MS;fontSize=16;" vertex="1" parent="1">
          <mxGeometry x="493" y="360" width="116" height="30" as="geometry" />
        </mxCell>
        <mxCell id="cXLPeXrp7or8tHIXApUD-19" value="rule:/order" style="text;html=1;strokeColor=none;fillColor=none;align=center;verticalAlign=middle;whiteSpace=wrap;rounded=0;fontFamily=Comic Sans MS;fontSize=16;" vertex="1" parent="1">
          <mxGeometry x="661" y="361" width="116" height="30" as="geometry" />
        </mxCell>
        <mxCell id="cXLPeXrp7or8tHIXApUD-21" value="" style="shape=image;html=1;verticalAlign=top;verticalLabelPosition=bottom;labelBackgroundColor=#ffffff;imageAspect=0;aspect=fixed;image=https://cdn0.iconfinder.com/data/icons/google-material-design-3-0/48/ic_http_48px-128.png" vertex="1" parent="1">
          <mxGeometry x="450" y="272" width="40" height="40" as="geometry" />
        </mxCell>
        <mxCell id="cXLPeXrp7or8tHIXApUD-22" value="" style="shape=image;html=1;verticalAlign=top;verticalLabelPosition=bottom;labelBackgroundColor=#ffffff;imageAspect=0;aspect=fixed;image=https://cdn0.iconfinder.com/data/icons/google-material-design-3-0/48/ic_http_48px-128.png" vertex="1" parent="1">
          <mxGeometry x="570" y="272" width="40" height="40" as="geometry" />
        </mxCell>
        <mxCell id="cXLPeXrp7or8tHIXApUD-23" value="" style="shape=image;html=1;verticalAlign=top;verticalLabelPosition=bottom;labelBackgroundColor=#ffffff;imageAspect=0;aspect=fixed;image=https://cdn1.iconfinder.com/data/icons/material-core/23/https-128.png" vertex="1" parent="1">
          <mxGeometry x="600" y="290" width="30" height="30" as="geometry" />
        </mxCell>
        <mxCell id="cXLPeXrp7or8tHIXApUD-25" value="" style="rounded=1;arcSize=2;dashed=1;fillColor=none;gradientColor=none;dashPattern=8 3 1 3;strokeWidth=2;" vertex="1" parent="1">
          <mxGeometry x="40" y="585" width="760" height="345" as="geometry" />
        </mxCell>
        <mxCell id="cXLPeXrp7or8tHIXApUD-33" value="Node" style="swimlane;" vertex="1" parent="1">
          <mxGeometry x="277.5" y="651" width="121" height="240" as="geometry">
            <mxRectangle x="290" y="680" width="100" height="30" as="alternateBounds" />
          </mxGeometry>
        </mxCell>
        <mxCell id="cXLPeXrp7or8tHIXApUD-46" value="NP:A" style="html=1;shape=mxgraph.sysml.nestedPort;fontStyle=1;whiteSpace=wrap;align=center;fillColor=#00CC66;strokeColor=#82b366;" vertex="1" parent="cXLPeXrp7or8tHIXApUD-33">
          <mxGeometry x="-17.5" y="39" width="50" height="30" as="geometry" />
        </mxCell>
        <mxCell id="cXLPeXrp7or8tHIXApUD-47" value="" style="resizable=0;html=1;align=right;verticalAlign=middle;labelPosition=left;verticalLabelPosition=top;labelBackgroundColor=none;fontSize=10" connectable="0" vertex="1" parent="cXLPeXrp7or8tHIXApUD-46">
          <mxGeometry y="6.999999999999999" as="geometry" />
        </mxCell>
        <mxCell id="cXLPeXrp7or8tHIXApUD-48" value="" style="resizable=0;html=1;align=right;verticalAlign=middle;labelPosition=left;verticalLabelPosition=top;labelBackgroundColor=none;fontSize=10" connectable="0" vertex="1" parent="cXLPeXrp7or8tHIXApUD-46">
          <mxGeometry y="15" as="geometry" />
        </mxCell>
        <mxCell id="cXLPeXrp7or8tHIXApUD-49" value="" style="resizable=0;html=1;align=right;verticalAlign=middle;labelPosition=left;verticalLabelPosition=top;labelBackgroundColor=none;fontSize=10" connectable="0" vertex="1" parent="cXLPeXrp7or8tHIXApUD-46">
          <mxGeometry y="23" as="geometry" />
        </mxCell>
        <mxCell id="cXLPeXrp7or8tHIXApUD-50" value="" style="resizable=0;html=1;align=left;verticalAlign=middle;labelPosition=left;verticalLabelPosition=top;labelBackgroundColor=none;fontSize=10" connectable="0" vertex="1" parent="cXLPeXrp7or8tHIXApUD-46">
          <mxGeometry x="6.875" y="5" as="geometry" />
        </mxCell>
        <mxCell id="cXLPeXrp7or8tHIXApUD-20" value="&lt;b&gt;1&lt;/b&gt;" style="ellipse;whiteSpace=wrap;html=1;aspect=fixed;dashed=1;fillColor=#dae8fc;strokeColor=#6c8ebf;gradientColor=#E6E6E6;" vertex="1" parent="cXLPeXrp7or8tHIXApUD-33">
          <mxGeometry x="-47.5" y="199" width="30" height="30" as="geometry" />
        </mxCell>
        <mxCell id="cXLPeXrp7or8tHIXApUD-26" value="kube&#xa;APi&#xa;SERVER" style="rounded=1;arcSize=8;strokeColor=none;fillColor=#DBDBDB;gradientColor=none;fontFamily=Comic Sans MS;fontSize=16;" vertex="1" parent="cXLPeXrp7or8tHIXApUD-33">
          <mxGeometry x="-217.5" y="129" width="110" height="100" as="geometry" />
        </mxCell>
        <mxCell id="cXLPeXrp7or8tHIXApUD-42" value="" style="endArrow=classic;html=1;rounded=0;" edge="1" parent="cXLPeXrp7or8tHIXApUD-33">
          <mxGeometry width="50" height="50" relative="1" as="geometry">
            <mxPoint x="40" y="167.5" as="sourcePoint" />
            <mxPoint x="-108" y="167.5" as="targetPoint" />
          </mxGeometry>
        </mxCell>
        <mxCell id="cXLPeXrp7or8tHIXApUD-35" value="alb-ingress-controller" style="verticalLabelPosition=bottom;html=1;verticalAlign=top;align=center;strokeColor=none;fillColor=#00BEF2;shape=mxgraph.azure.azure_load_balancer;fontFamily=Comic Sans MS;fontSize=11;" vertex="1" parent="cXLPeXrp7or8tHIXApUD-33">
          <mxGeometry x="36.5" y="161.5" width="50" height="35" as="geometry" />
        </mxCell>
        <mxCell id="cXLPeXrp7or8tHIXApUD-36" style="edgeStyle=orthogonalEdgeStyle;rounded=0;orthogonalLoop=1;jettySize=auto;html=1;" edge="1" parent="cXLPeXrp7or8tHIXApUD-33" source="cXLPeXrp7or8tHIXApUD-26" target="cXLPeXrp7or8tHIXApUD-35">
          <mxGeometry relative="1" as="geometry" />
        </mxCell>
        <mxCell id="cXLPeXrp7or8tHIXApUD-38" value="update status" style="text;html=1;strokeColor=none;fillColor=none;align=center;verticalAlign=middle;whiteSpace=wrap;rounded=0;fontFamily=Comic Sans MS;fontSize=10;" vertex="1" parent="cXLPeXrp7or8tHIXApUD-33">
          <mxGeometry x="-85.5" y="149.5" width="100" height="20" as="geometry" />
        </mxCell>
        <mxCell id="cXLPeXrp7or8tHIXApUD-39" value="watch changes" style="text;html=1;strokeColor=none;fillColor=none;align=center;verticalAlign=middle;whiteSpace=wrap;rounded=0;fontFamily=Comic Sans MS;fontSize=10;" vertex="1" parent="cXLPeXrp7or8tHIXApUD-33">
          <mxGeometry x="-117.5" y="174.5" width="96" height="20" as="geometry" />
        </mxCell>
        <mxCell id="cXLPeXrp7or8tHIXApUD-34" value="" style="editableCssRules=.*;html=1;shape=image;verticalLabelPosition=bottom;labelBackgroundColor=#ffffff;verticalAlign=top;aspect=fixed;imageAspect=0;image=data:image/svg+xml,PHN2ZyB4bWxucz0iaHR0cDovL3d3dy53My5vcmcvMjAwMC9zdmciIHhtbG5zOnY9Imh0dHBzOi8vdmVjdGEuaW8vbmFubyIgd2lkdGg9IjcwMi44NDYzMTM0NzY1NjI1IiBoZWlnaHQ9IjY4MS45NjcxMDIwNTA3ODEyIiB2aWV3Qm94PSIxMC4wMDEwMjYxNTM1NjQ0NTMgMTAuMDAwOTMzNjQ3MTU1NzYyIDcwMi44NDYzMTM0NzY1NjI1IDY4MS45NjcxMDIwNTA3ODEyIj4mI3hhOwk8c3R5bGUgdHlwZT0idGV4dC9jc3MiPiYjeGE7CS5zdDB7ZmlsbDojMzI2Y2U1O30mI3hhOwkuc3Qxe2ZpbGw6I2ZmZjt9JiN4YTsJPC9zdHlsZT4mI3hhOwk8cGF0aCBjbGFzcz0ic3QwIiBkPSJNMzU4Ljk4NyAxMC4wNmMtNi4yMTMuMzEzLTEyLjMwMSAxLjg1NC0xNy45MDYgNC41MzFMOTYuNzM3IDEzMS4zNDJjLTEyLjgxMSA2LjExOC0yMi4xMTYgMTcuNjg5LTI1LjI4MSAzMS40MzhsLTYwLjI4MSAyNjIuMjVjLTIuODEyIDEyLjIwNy0uNTI0IDI1LjAyNCA2LjM0NCAzNS41MzFhNDYuMzUgNDYuMzUgMCAwIDAgMi42NTYgMy42ODhsMTY5LjEyNSAyMTAuMjgxYzguODY4IDExLjAyMiAyMi4zMTMgMTcuNDQgMzYuNTMxIDE3LjQzOGwyNzEuMjE5LS4wNjJjMTQuMjEyLjAxIDI3LjY1Ny02LjM5NiAzNi41MzEtMTcuNDA2bDE2OS4wNjMtMjEwLjMxM2M4Ljg3My0xMS4wMjggMTIuMTk3LTI1LjQ2NCA5LjAzMS0zOS4yMTlsLTYwLjM3NS0yNjIuMjVjLTMuMTY1LTEzLjc0OC0xMi40Ny0yNS4zMTktMjUuMjgxLTMxLjQzN0wzODEuNjQzIDE0LjU5MmMtNy4wNS0zLjM2OC0xNC44NDEtNC45MjYtMjIuNjU2LTQuNTMxeiIvPiYjeGE7CTxwYXRoIGNsYXNzPSJzdDEgc3QyIiBkPSJNMzYxLjQwOCA5OS4zMDhjLTguMDc3LjAwMS0xNC42MjYgNy4yNzYtMTQuNjI1IDE2LjI1IDAgLjEzOC4wMjguMjY5LjAzMS40MDYtLjAxMiAxLjIxOS0uMDcxIDIuNjg4LS4wMzEgMy43NS4xOTMgNS4xNzYgMS4zMjEgOS4xMzcgMiAxMy45MDYgMS4yMyAxMC4yMDcgMi4yNjEgMTguNjY3IDEuNjI1IDI2LjUzMS0uNjE5IDIuOTY1LTIuODAzIDUuNjc3LTQuNzUgNy41NjNsLS4zNDQgNi4xODhjLTguNzc3LjcyNy0xNy42MTIgMi4wNTktMjYuNDM3IDQuMDYzLTM3Ljk3NSA4LjYyMi03MC42NyAyOC4xODMtOTUuNTYyIDU0LjU5NC0xLjYxNS0xLjEwMi00LjQ0MS0zLjEyOS01LjI4MS0zLjc1LTIuNjExLjM1My01LjI1IDEuMTU4LTguNjg3LS44NDQtNi41NDUtNC40MDYtMTIuNTA2LTEwLjQ4Ny0xOS43MTktMTcuODEyLTMuMzA1LTMuNTA0LTUuNjk4LTYuODQxLTkuNjI1LTEwLjIxOS0uODkyLS43NjctMi4yNTMtMS44MDUtMy4yNS0yLjU5NC0zLjA3LTIuNDQ4LTYuNjkxLTMuNzI0LTEwLjE4Ny0zLjg0NC00LjQ5Ni0uMTU0LTguODI0IDEuNjA0LTExLjY1NiA1LjE1Ni01LjAzNSA2LjMxNS0zLjQyMyAxNS45NjggMy41OTQgMjEuNTYzLjA3MS4wNTcuMTQ3LjEwMS4yMTkuMTU2Ljk2NC43ODIgMi4xNDUgMS43ODMgMy4wMzEgMi40MzggNC4xNjcgMy4wNzcgNy45NzMgNC42NTEgMTIuMTI1IDcuMDk0IDguNzQ3IDUuNDAyIDE1Ljk5OCA5Ljg4MSAyMS43NSAxNS4yODEgMi4yNDYgMi4zOTQgMi42MzkgNi42MTMgMi45MzggOC40MzhsNC42ODggNC4xODhjLTI1LjA5MyAzNy43NjQtMzYuNzA3IDg0LjQwOS0yOS44NDQgMTMxLjkzOGwtNi4xMjUgMS43ODFjLTEuNjE0IDIuMDg1LTMuODk1IDUuMzY1LTYuMjgxIDYuMzQ0LTcuNTI1IDIuMzctMTUuOTk0IDMuMjQxLTI2LjIxOSA0LjMxMy00LjguMzk5LTguOTQyLjE2MS0xNC4wMzEgMS4xMjUtMS4xMi4yMTItMi42ODEuNjE5LTMuOTA2LjkwNi0uMDQzLjAwOS0uMDgyLjAyMi0uMTI1LjAzMS0uMDY3LjAxNS0uMTU1LjA0OC0uMjE5LjA2My04LjYyIDIuMDgzLTE0LjE1OCAxMC4wMDYtMTIuMzc1IDE3LjgxM3MxMC4yMDMgMTIuNTU3IDE4Ljg3NSAxMC42ODhjLjA2My0uMDE0LjE1NC0uMDE3LjIxOS0uMDMxLjA5OC0uMDIyLjE4NC0uMDcuMjgxLS4wOTQgMS4yMDktLjI2NSAyLjcyNC0uNTYxIDMuNzgxLS44NDQgNS4wMDMtMS4zNCA4LjYyNy0zLjMwOCAxMy4xMjUtNS4wMzEgOS42NzctMy40NzEgMTcuNjkyLTYuMzcgMjUuNS03LjUgMy4yNjEtLjI1NSA2LjY5NyAyLjAxMiA4LjQwNiAyLjk2OWw2LjM3NS0xLjA5NGMxNC42NyA0NS40ODMgNDUuNDE0IDgyLjI0NSA4NC4zNDQgMTA1LjMxMmwtMi42NTYgNi4zNzVjLjk1NyAyLjQ3NSAyLjAxMyA1LjgyNSAxLjMgOC4yNjktMi44MzkgNy4zNjEtNy43MDEgMTUuMTMxLTEzLjIzOCAyMy43OTMtMi42ODEgNC4wMDItNS40MjUgNy4xMDgtNy44NDQgMTEuNjg4LS41NzkgMS4wOTYtMS4zMTYgMi43NzktMS44NzUgMy45MzgtMy43NTkgOC4wNDItMS4wMDIgMTcuMzA1IDYuMjE5IDIwLjc4MSA3LjI2NiAzLjQ5OCAxNi4yODQtLjE5MSAyMC4xODctOC4yNS4wMDYtLjAxMS4wMjYtLjAyLjAzMS0uMDMxcy0uMDA0LS4wMjMgMC0uMDMxYy41NTYtMS4xNDMgMS4zNDQtMi42NDQgMS44MTMtMy43MTkgMi4wNzItNC43NDcgMi43NjItOC44MTUgNC4yMTktMTMuNDA2IDMuODctOS43MiA1Ljk5Ni0xOS45MTkgMTEuMzIzLTI2LjI3NCAxLjQ1OS0xLjc0IDMuODM3LTIuNDA5IDYuMzAyLTMuMDdsMy4zMTMtNmMzMy45MzggMTMuMDI3IDcxLjkyNyAxNi41MjIgMTA5Ljg3NSA3LjkwNmExODkuNzcgMTg5Ljc3IDAgMCAwIDI1LjA5NC03LjU2MmwzLjEyNSA1LjYyNWMyLjUwNi44MTUgNS4yNCAxLjIzNiA3LjQ2OSA0LjUzMSAzLjk4NSA2LjgwOSA2LjcxMSAxNC44NjQgMTAuMDMxIDI0LjU5NCAxLjQ1NyA0LjU5MSAyLjE3OCA4LjY1OSA0LjI1IDEzLjQwNi40NzIgMS4wODIgMS4yNTYgMi42MDUgMS44MTMgMy43NSAzLjg5NSA4LjA4NSAxMi45NDIgMTEuNzg3IDIwLjIxOSA4LjI4MSA3LjIxOS0zLjQ3OCA5Ljk4LTEyLjc0IDYuMjE5LTIwLjc4MWwtMS45MDYtMy45MzdjLTIuNDE5LTQuNTgtNS4xNjMtNy42NTQtNy44NDQtMTEuNjU2LTUuNTM3LTguNjYyLTEwLjEzLTE1Ljg1OC0xMi45NjktMjMuMjE5LTEuMTg3LTMuNzk3LjItNi4xNTggMS4xMjUtOC42MjUtLjU1NC0uNjM1LTEuNzM5LTQuMjItMi40MzctNS45MDYgNDAuNDU3LTIzLjg4OCA3MC4yOTktNjIuMDIxIDg0LjMxMy0xMDYuMDYyIDEuODkyLjI5NyA1LjE4Mi44NzkgNi4yNSAxLjA5NCAyLjItMS40NTEgNC4yMjItMy4zNDQgOC4xODgtMy4wMzEgNy44MDggMS4xMjkgMTUuODIzIDQuMDMgMjUuNSA3LjUgNC40OTggMS43MjMgOC4xMjIgMy43MjMgMTMuMTI1IDUuMDYzIDEuMDU3LjI4MyAyLjU3Mi41NDcgMy43ODEuODEzLjA5Ny4wMjQuMTgzLjA3MS4yODEuMDk0LjA2NS4wMTUuMTU2LjAxNy4yMTkuMDMxIDguNjcyIDEuODY3IDE3LjA5NC0yLjg3OSAxOC44NzUtMTAuNjg3cy0zLjc1NC0xNS43MzItMTIuMzc1LTE3LjgxMmMtMS4yNTQtLjI4NS0zLjAzMi0uNzY5LTQuMjUtMS01LjA4OS0uOTY0LTkuMjMxLS43MjYtMTQuMDMxLTEuMTI1LTEwLjIyNS0xLjA3MS0xOC42OTMtMS45NDMtMjYuMjE5LTQuMzEyLTMuMDY4LTEuMTktNS4yNTEtNC44NDEtNi4zMTMtNi4zNDRsLTUuOTA2LTEuNzE5YzMuMDYyLTIyLjE1NCAyLjIzNy00NS4yMTEtMy4wNjItNjguMjgxLTUuMzQ4LTIzLjI4NS0xNC44LTQ0LjU4MS0yNy40MDYtNjMuMzQ0bDUuMTg4LTQuNjU2Yy4yMzctMi42MjQuMDMzLTUuMzc2IDIuNzUtOC4yODEgNS43NTEtNS40MDEgMTMuMDAzLTkuODc5IDIxLjc1LTE1LjI4MSA0LjE1Mi0yLjQ0MyA3Ljk5LTQuMDE3IDEyLjE1Ni03LjA5NC45NDItLjY5NiAyLjIyOS0xLjc5OCAzLjIxOS0yLjU5NCA3LjAxNS01LjU5NiA4LjYzMS0xNS4yNDggMy41OTQtMjEuNTYycy0xNC43OTctNi45MDktMjEuODEyLTEuMzEyYy0uOTk5Ljc5MS0yLjM1NCAxLjgyMy0zLjI1IDIuNTk0LTMuOTI3IDMuMzc4LTYuMzUxIDYuNzE0LTkuNjU2IDEwLjIxOS03LjIxMiA3LjMyNi0xMy4xNzQgMTMuNDM4LTE5LjcxOSAxNy44NDQtMi44MzYgMS42NTEtNi45OSAxLjA4LTguODc1Ljk2OWwtNS41NjIgMy45NjljLTMxLjcxOS0zMy4yNjEtNzQuOTA1LTU0LjUyNS0xMjEuNDA2LTU4LjY1NmwtLjM0NC02LjUzMWMtMS45MDQtMS44MjItNC4yMDMtMy4zNzctNC43ODEtNy4zMTItLjYzNi03Ljg2NC40MjYtMTYuMzI1IDEuNjU2LTI2LjUzMS42NzktNC43NjkgMS44MDctOC43MyAyLTEzLjkwNi4wNDQtMS4xNzctLjAyNi0yLjg4NC0uMDMxLTQuMTU2LS4wMDEtOC45NzQtNi41NDgtMTYuMjUxLTE0LjYyNS0xNi4yNXptLTE4LjMxMiAxMTMuNDM4bC00LjM0NCA3Ni43MTktLjMxMi4xNTZjLS4yOTEgNi44NjMtNS45NCAxMi4zNDQtMTIuODc1IDEyLjM0NGExMi44MiAxMi44MiAwIDAgMS03LjU5NC0yLjQ2OWwtLjEyNS4wNjMtNjIuOTA2LTQ0LjU5NGMxOS4zMzQtMTkuMDExIDQ0LjA2My0zMy4wNiA3Mi41NjItMzkuNTMxIDUuMjA2LTEuMTgyIDEwLjQxLTIuMDU5IDE1LjU5NC0yLjY4N3ptMzYuNjU2IDBjMzMuMjczIDQuMDkyIDY0LjA0NSAxOS4xNTkgODcuNjI1IDQyLjI1bC02Mi41IDQ0LjMxMy0uMjE5LS4wOTRhMTIuOTEgMTIuOTEgMCAwIDEtMTcuNjg3LTIuMzc1Yy0xLjc3MS0yLjIyMS0yLjcwMS00LjgzMi0yLjgxMi03LjQ2OWwtLjA2Mi0uMDMxek0yMzIuMTI2IDI4My42Mmw1Ny40MzcgNTEuMzc1LS4wNjIuMzEzYTEyLjg4IDEyLjg4IDAgMCAxIDEuNjI1IDE3Ljc1IDEyLjg5IDEyLjg5IDAgMCAxLTYuNjg3IDQuNDA2bC0uMDYyLjI1LTczLjYyNSAyMS4yNWMtMy43NDctMzQuMjY1IDQuMzI5LTY3LjU3NCAyMS4zNzUtOTUuMzQ0em0yNTguMTU2LjAzMWM4LjUzNCAxMy44MzMgMTQuOTk3IDI5LjI4MiAxOC44NDQgNDYuMDMxIDMuODAxIDE2LjU0OCA0Ljc1NSAzMy4wNjcgMy4xODggNDkuMDMxbC03NC0yMS4zMTItLjA2Mi0uMzEyYy02LjYyNy0xLjgxMS0xMC42OTktOC41NTItOS4xNTYtMTUuMzEyLjYzMi0yLjc3IDIuMTAyLTUuMTEzIDQuMDk0LTYuODQ0bC0uMDMxLS4xNTYgNTcuMTI1LTUxLjEyNXptLTE0MC42NTYgNTUuMzEzaDIzLjUzMWwxNC42MjUgMTguMjgxLTUuMjUgMjIuODEzLTIxLjEyNSAxMC4xNTYtMjEuMTg3LTEwLjE4Ny01LjI1LTIyLjgxMnptNzUuNDM4IDYyLjU2M2ExMi44MyAxMi44MyAwIDAgMSAyLjk2OS4yMTlsLjEyNS0uMTU2IDc2LjE1NiAxMi44NzVjLTExLjE0NiAzMS4zMTMtMzIuNDczIDU4LjQ0LTYwLjk2OSA3Ni41OTRsLTI5LjU2Mi03MS40MDYuMDk0LS4xMjVjLTIuNzE2LTYuMzEuMDAyLTEzLjcxIDYuMjUtMTYuNzE5IDEuNi0uNzcgMy4yNzEtMS4xOTcgNC45MzgtMS4yODF6bS0xMjcuOTA2LjMxM2ExMi45IDEyLjkgMCAwIDEgMTIuMzc1IDEwLjAzMSAxMi43NyAxMi43NyAwIDAgMS0uNzE5IDcuOTM4bC4yMTkuMjgxLTI5LjI1IDcwLjY4OGMtMjcuMzQ3LTE3LjU0OS00OS4xMjktNDMuODI0LTYwLjc4MS03Ni4wNjJsNzUuNS0xMi44MTIuMTI1LjE1NmMuODQ1LS4xNTUgMS43MDEtLjIzIDIuNTMxLS4yMTl6bTYzLjc4MSAzMC45NjljMi4wMjQtLjA3NCA0LjA3OS4zNDEgNi4wMzEgMS4yODEgMi41NiAxLjIzMyA0LjUzNyAzLjE3MyA1Ljc4MSA1LjVoLjI4MWwzNy4yMTkgNjcuMjVjLTQuODMgMS42MTktOS43OTYgMy4wMDMtMTQuODc1IDQuMTU2LTI4LjQ2NSA2LjQ2My01Ni44MzkgNC41MDUtODIuNTMxLTQuMjVsMzcuMTI1LTY3LjEyNWguMDYzYTEyLjkxIDEyLjkxIDAgMCAxIDEwLjkwNi02LjgxMnoiIHN0cm9rZT0ibm9uZSIgc3Ryb2tlLXdpZHRoPSIuMjUiLz4mI3hhOzwvc3ZnPg==;fontColor=default;" vertex="1" parent="1">
          <mxGeometry x="70" y="566" width="40" height="38" as="geometry" />
        </mxCell>
        <mxCell id="cXLPeXrp7or8tHIXApUD-43" value="" style="sketch=0;html=1;dashed=0;whitespace=wrap;fillColor=#00CC66;strokeColor=#ffffff;points=[[0.005,0.63,0],[0.1,0.2,0],[0.9,0.2,0],[0.5,0,0],[0.995,0.63,0],[0.72,0.99,0],[0.5,1,0],[0.28,0.99,0]];verticalLabelPosition=bottom;align=center;verticalAlign=top;shape=mxgraph.kubernetes.icon;prIcon=pod" vertex="1" parent="1">
          <mxGeometry x="310" y="715" width="50" height="40" as="geometry" />
        </mxCell>
        <mxCell id="cXLPeXrp7or8tHIXApUD-44" value="" style="sketch=0;html=1;dashed=0;whitespace=wrap;fillColor=#6000CC;strokeColor=#ffffff;points=[[0.005,0.63,0],[0.1,0.2,0],[0.9,0.2,0],[0.5,0,0],[0.995,0.63,0],[0.72,0.99,0],[0.5,1,0],[0.28,0.99,0]];verticalLabelPosition=bottom;align=center;verticalAlign=top;shape=mxgraph.kubernetes.icon;prIcon=pod" vertex="1" parent="1">
          <mxGeometry x="310" y="760" width="50" height="40" as="geometry" />
        </mxCell>
        <mxCell id="cXLPeXrp7or8tHIXApUD-60" value="&lt;font color=&quot;#ffffff&quot;&gt;NP:B&lt;/font&gt;" style="html=1;shape=mxgraph.sysml.nestedPort;fontStyle=1;whiteSpace=wrap;align=center;fillColor=#6000CC;strokeColor=#82b366;" vertex="1" parent="1">
          <mxGeometry x="240" y="725" width="59" height="30" as="geometry" />
        </mxCell>
        <mxCell id="cXLPeXrp7or8tHIXApUD-61" value="" style="resizable=0;html=1;align=right;verticalAlign=middle;labelPosition=left;verticalLabelPosition=top;labelBackgroundColor=none;fontSize=10" connectable="0" vertex="1" parent="cXLPeXrp7or8tHIXApUD-60">
          <mxGeometry y="6.999999999999999" as="geometry" />
        </mxCell>
        <mxCell id="cXLPeXrp7or8tHIXApUD-62" value="" style="resizable=0;html=1;align=right;verticalAlign=middle;labelPosition=left;verticalLabelPosition=top;labelBackgroundColor=none;fontSize=10" connectable="0" vertex="1" parent="cXLPeXrp7or8tHIXApUD-60">
          <mxGeometry y="15" as="geometry" />
        </mxCell>
        <mxCell id="cXLPeXrp7or8tHIXApUD-63" value="" style="resizable=0;html=1;align=right;verticalAlign=middle;labelPosition=left;verticalLabelPosition=top;labelBackgroundColor=none;fontSize=10" connectable="0" vertex="1" parent="cXLPeXrp7or8tHIXApUD-60">
          <mxGeometry y="23" as="geometry" />
        </mxCell>
        <mxCell id="cXLPeXrp7or8tHIXApUD-64" value="" style="resizable=0;html=1;align=left;verticalAlign=middle;labelPosition=left;verticalLabelPosition=top;labelBackgroundColor=none;fontSize=10" connectable="0" vertex="1" parent="cXLPeXrp7or8tHIXApUD-60">
          <mxGeometry x="8.112499999999999" y="5" as="geometry" />
        </mxCell>
        <mxCell id="cXLPeXrp7or8tHIXApUD-95" value="" style="endArrow=none;html=1;rounded=0;strokeWidth=3;strokeColor=#00994D;" edge="1" parent="1">
          <mxGeometry width="50" height="50" relative="1" as="geometry">
            <mxPoint x="349.6" y="617" as="sourcePoint" />
            <mxPoint x="349.6" y="547" as="targetPoint" />
          </mxGeometry>
        </mxCell>
        <mxCell id="cXLPeXrp7or8tHIXApUD-99" value="" style="endArrow=none;html=1;rounded=0;strokeWidth=3;strokeColor=#00994D;" edge="1" parent="1">
          <mxGeometry width="50" height="50" relative="1" as="geometry">
            <mxPoint x="271" y="618" as="sourcePoint" />
            <mxPoint x="351" y="618" as="targetPoint" />
          </mxGeometry>
        </mxCell>
        <mxCell id="cXLPeXrp7or8tHIXApUD-100" value="" style="endArrow=none;html=1;rounded=0;strokeWidth=3;strokeColor=#00994D;" edge="1" parent="1">
          <mxGeometry width="50" height="50" relative="1" as="geometry">
            <mxPoint x="351" y="618" as="sourcePoint" />
            <mxPoint x="620" y="618" as="targetPoint" />
          </mxGeometry>
        </mxCell>
        <mxCell id="cXLPeXrp7or8tHIXApUD-101" value="" style="endArrow=classic;html=1;rounded=0;strokeWidth=2;strokeColor=#00994D;" edge="1" parent="1">
          <mxGeometry width="50" height="50" relative="1" as="geometry">
            <mxPoint x="270" y="617" as="sourcePoint" />
            <mxPoint x="270" y="689" as="targetPoint" />
          </mxGeometry>
        </mxCell>
        <mxCell id="cXLPeXrp7or8tHIXApUD-104" value="" style="endArrow=none;html=1;rounded=0;strokeWidth=3;strokeColor=#6600CC;" edge="1" parent="1">
          <mxGeometry width="50" height="50" relative="1" as="geometry">
            <mxPoint x="534.6" y="623" as="sourcePoint" />
            <mxPoint x="534.6" y="547" as="targetPoint" />
          </mxGeometry>
        </mxCell>
        <mxCell id="cXLPeXrp7or8tHIXApUD-105" value="" style="endArrow=none;html=1;rounded=0;strokeWidth=3;strokeColor=#6600CC;" edge="1" parent="1">
          <mxGeometry width="50" height="50" relative="1" as="geometry">
            <mxPoint x="250" y="623" as="sourcePoint" />
            <mxPoint x="600" y="623" as="targetPoint" />
          </mxGeometry>
        </mxCell>
        <mxCell id="cXLPeXrp7or8tHIXApUD-106" value="" style="endArrow=classic;html=1;rounded=0;strokeWidth=2;strokeColor=#6600CC;entryX=0.251;entryY=-0.133;entryDx=0;entryDy=0;entryPerimeter=0;" edge="1" parent="1">
          <mxGeometry width="50" height="50" relative="1" as="geometry">
            <mxPoint x="432" y="623" as="sourcePoint" />
            <mxPoint x="430.80899999999997" y="724.01" as="targetPoint" />
          </mxGeometry>
        </mxCell>
        <mxCell id="cXLPeXrp7or8tHIXApUD-117" value="Node" style="swimlane;" vertex="1" parent="1">
          <mxGeometry x="461.5" y="651" width="121" height="240" as="geometry">
            <mxRectangle x="290" y="680" width="100" height="30" as="alternateBounds" />
          </mxGeometry>
        </mxCell>
        <mxCell id="cXLPeXrp7or8tHIXApUD-119" value="NP:A" style="html=1;shape=mxgraph.sysml.nestedPort;fontStyle=1;whiteSpace=wrap;align=center;fillColor=#00CC66;strokeColor=#82b366;" vertex="1" parent="cXLPeXrp7or8tHIXApUD-117">
          <mxGeometry x="-17.5" y="39" width="50" height="30" as="geometry" />
        </mxCell>
        <mxCell id="cXLPeXrp7or8tHIXApUD-120" value="" style="resizable=0;html=1;align=right;verticalAlign=middle;labelPosition=left;verticalLabelPosition=top;labelBackgroundColor=none;fontSize=10" connectable="0" vertex="1" parent="cXLPeXrp7or8tHIXApUD-119">
          <mxGeometry y="6.999999999999999" as="geometry" />
        </mxCell>
        <mxCell id="cXLPeXrp7or8tHIXApUD-121" value="" style="resizable=0;html=1;align=right;verticalAlign=middle;labelPosition=left;verticalLabelPosition=top;labelBackgroundColor=none;fontSize=10" connectable="0" vertex="1" parent="cXLPeXrp7or8tHIXApUD-119">
          <mxGeometry y="15" as="geometry" />
        </mxCell>
        <mxCell id="cXLPeXrp7or8tHIXApUD-122" value="" style="resizable=0;html=1;align=right;verticalAlign=middle;labelPosition=left;verticalLabelPosition=top;labelBackgroundColor=none;fontSize=10" connectable="0" vertex="1" parent="cXLPeXrp7or8tHIXApUD-119">
          <mxGeometry y="23" as="geometry" />
        </mxCell>
        <mxCell id="cXLPeXrp7or8tHIXApUD-123" value="" style="resizable=0;html=1;align=left;verticalAlign=middle;labelPosition=left;verticalLabelPosition=top;labelBackgroundColor=none;fontSize=10" connectable="0" vertex="1" parent="cXLPeXrp7or8tHIXApUD-119">
          <mxGeometry x="6.875" y="5" as="geometry" />
        </mxCell>
        <mxCell id="cXLPeXrp7or8tHIXApUD-124" value="" style="sketch=0;html=1;dashed=0;whitespace=wrap;fillColor=#00CC66;strokeColor=#ffffff;points=[[0.005,0.63,0],[0.1,0.2,0],[0.9,0.2,0],[0.5,0,0],[0.995,0.63,0],[0.72,0.99,0],[0.5,1,0],[0.28,0.99,0]];verticalLabelPosition=bottom;align=center;verticalAlign=top;shape=mxgraph.kubernetes.icon;prIcon=pod" vertex="1" parent="1">
          <mxGeometry x="494" y="715" width="50" height="40" as="geometry" />
        </mxCell>
        <mxCell id="cXLPeXrp7or8tHIXApUD-125" value="" style="sketch=0;html=1;dashed=0;whitespace=wrap;fillColor=#6000CC;strokeColor=#ffffff;points=[[0.005,0.63,0],[0.1,0.2,0],[0.9,0.2,0],[0.5,0,0],[0.995,0.63,0],[0.72,0.99,0],[0.5,1,0],[0.28,0.99,0]];verticalLabelPosition=bottom;align=center;verticalAlign=top;shape=mxgraph.kubernetes.icon;prIcon=pod" vertex="1" parent="1">
          <mxGeometry x="494" y="760" width="50" height="40" as="geometry" />
        </mxCell>
        <mxCell id="cXLPeXrp7or8tHIXApUD-126" value="" style="sketch=0;html=1;dashed=0;whitespace=wrap;fillColor=#3333FF;strokeColor=#ffffff;points=[[0.005,0.63,0],[0.1,0.2,0],[0.9,0.2,0],[0.5,0,0],[0.995,0.63,0],[0.72,0.99,0],[0.5,1,0],[0.28,0.99,0]];verticalLabelPosition=bottom;align=center;verticalAlign=top;shape=mxgraph.kubernetes.icon;prIcon=pod" vertex="1" parent="1">
          <mxGeometry x="494" y="805" width="50" height="40" as="geometry" />
        </mxCell>
        <mxCell id="cXLPeXrp7or8tHIXApUD-127" value="&lt;font color=&quot;#ffffff&quot;&gt;NP:B&lt;/font&gt;" style="html=1;shape=mxgraph.sysml.nestedPort;fontStyle=1;whiteSpace=wrap;align=center;fillColor=#6000CC;strokeColor=#82b366;" vertex="1" parent="1">
          <mxGeometry x="424" y="725" width="59" height="30" as="geometry" />
        </mxCell>
        <mxCell id="cXLPeXrp7or8tHIXApUD-128" value="" style="resizable=0;html=1;align=right;verticalAlign=middle;labelPosition=left;verticalLabelPosition=top;labelBackgroundColor=none;fontSize=10" connectable="0" vertex="1" parent="cXLPeXrp7or8tHIXApUD-127">
          <mxGeometry y="6.999999999999999" as="geometry" />
        </mxCell>
        <mxCell id="cXLPeXrp7or8tHIXApUD-129" value="" style="resizable=0;html=1;align=right;verticalAlign=middle;labelPosition=left;verticalLabelPosition=top;labelBackgroundColor=none;fontSize=10" connectable="0" vertex="1" parent="cXLPeXrp7or8tHIXApUD-127">
          <mxGeometry y="15" as="geometry" />
        </mxCell>
        <mxCell id="cXLPeXrp7or8tHIXApUD-130" value="" style="resizable=0;html=1;align=right;verticalAlign=middle;labelPosition=left;verticalLabelPosition=top;labelBackgroundColor=none;fontSize=10" connectable="0" vertex="1" parent="cXLPeXrp7or8tHIXApUD-127">
          <mxGeometry y="23" as="geometry" />
        </mxCell>
        <mxCell id="cXLPeXrp7or8tHIXApUD-131" value="" style="resizable=0;html=1;align=left;verticalAlign=middle;labelPosition=left;verticalLabelPosition=top;labelBackgroundColor=none;fontSize=10" connectable="0" vertex="1" parent="cXLPeXrp7or8tHIXApUD-127">
          <mxGeometry x="8.112499999999999" y="5" as="geometry" />
        </mxCell>
        <mxCell id="cXLPeXrp7or8tHIXApUD-136" value="" style="endArrow=classic;html=1;rounded=0;strokeWidth=2;strokeColor=#6600CC;entryX=0.251;entryY=-0.133;entryDx=0;entryDy=0;entryPerimeter=0;" edge="1" parent="1">
          <mxGeometry width="50" height="50" relative="1" as="geometry">
            <mxPoint x="250.19" y="622.99" as="sourcePoint" />
            <mxPoint x="248.99899999999997" y="724" as="targetPoint" />
          </mxGeometry>
        </mxCell>
        <mxCell id="cXLPeXrp7or8tHIXApUD-138" value="" style="endArrow=classic;html=1;rounded=0;strokeWidth=2;strokeColor=#00994D;" edge="1" parent="1">
          <mxGeometry width="50" height="50" relative="1" as="geometry">
            <mxPoint x="454.1" y="618" as="sourcePoint" />
            <mxPoint x="454.1" y="690" as="targetPoint" />
          </mxGeometry>
        </mxCell>
        <mxCell id="cXLPeXrp7or8tHIXApUD-148" value="Node" style="swimlane;" vertex="1" parent="1">
          <mxGeometry x="629" y="651" width="121" height="240" as="geometry">
            <mxRectangle x="629" y="651" width="100" height="30" as="alternateBounds" />
          </mxGeometry>
        </mxCell>
        <mxCell id="cXLPeXrp7or8tHIXApUD-149" value="NP:A" style="html=1;shape=mxgraph.sysml.nestedPort;fontStyle=1;whiteSpace=wrap;align=center;fillColor=#00CC66;strokeColor=#82b366;" vertex="1" parent="cXLPeXrp7or8tHIXApUD-148">
          <mxGeometry x="-17.5" y="39" width="50" height="30" as="geometry" />
        </mxCell>
        <mxCell id="cXLPeXrp7or8tHIXApUD-150" value="" style="resizable=0;html=1;align=right;verticalAlign=middle;labelPosition=left;verticalLabelPosition=top;labelBackgroundColor=none;fontSize=10" connectable="0" vertex="1" parent="cXLPeXrp7or8tHIXApUD-149">
          <mxGeometry y="6.999999999999999" as="geometry" />
        </mxCell>
        <mxCell id="cXLPeXrp7or8tHIXApUD-151" value="" style="resizable=0;html=1;align=right;verticalAlign=middle;labelPosition=left;verticalLabelPosition=top;labelBackgroundColor=none;fontSize=10" connectable="0" vertex="1" parent="cXLPeXrp7or8tHIXApUD-149">
          <mxGeometry y="15" as="geometry" />
        </mxCell>
        <mxCell id="cXLPeXrp7or8tHIXApUD-152" value="" style="resizable=0;html=1;align=right;verticalAlign=middle;labelPosition=left;verticalLabelPosition=top;labelBackgroundColor=none;fontSize=10" connectable="0" vertex="1" parent="cXLPeXrp7or8tHIXApUD-149">
          <mxGeometry y="23" as="geometry" />
        </mxCell>
        <mxCell id="cXLPeXrp7or8tHIXApUD-153" value="" style="resizable=0;html=1;align=left;verticalAlign=middle;labelPosition=left;verticalLabelPosition=top;labelBackgroundColor=none;fontSize=10" connectable="0" vertex="1" parent="cXLPeXrp7or8tHIXApUD-149">
          <mxGeometry x="6.875" y="5" as="geometry" />
        </mxCell>
        <mxCell id="cXLPeXrp7or8tHIXApUD-154" value="" style="sketch=0;html=1;dashed=0;whitespace=wrap;fillColor=#00CC66;strokeColor=#ffffff;points=[[0.005,0.63,0],[0.1,0.2,0],[0.9,0.2,0],[0.5,0,0],[0.995,0.63,0],[0.72,0.99,0],[0.5,1,0],[0.28,0.99,0]];verticalLabelPosition=bottom;align=center;verticalAlign=top;shape=mxgraph.kubernetes.icon;prIcon=pod" vertex="1" parent="1">
          <mxGeometry x="661.5" y="715" width="50" height="40" as="geometry" />
        </mxCell>
        <mxCell id="cXLPeXrp7or8tHIXApUD-155" value="" style="sketch=0;html=1;dashed=0;whitespace=wrap;fillColor=#6000CC;strokeColor=#ffffff;points=[[0.005,0.63,0],[0.1,0.2,0],[0.9,0.2,0],[0.5,0,0],[0.995,0.63,0],[0.72,0.99,0],[0.5,1,0],[0.28,0.99,0]];verticalLabelPosition=bottom;align=center;verticalAlign=top;shape=mxgraph.kubernetes.icon;prIcon=pod" vertex="1" parent="1">
          <mxGeometry x="661.5" y="760" width="50" height="40" as="geometry" />
        </mxCell>
        <mxCell id="cXLPeXrp7or8tHIXApUD-156" value="" style="sketch=0;html=1;dashed=0;whitespace=wrap;fillColor=#3333FF;strokeColor=#ffffff;points=[[0.005,0.63,0],[0.1,0.2,0],[0.9,0.2,0],[0.5,0,0],[0.995,0.63,0],[0.72,0.99,0],[0.5,1,0],[0.28,0.99,0]];verticalLabelPosition=bottom;align=center;verticalAlign=top;shape=mxgraph.kubernetes.icon;prIcon=pod" vertex="1" parent="1">
          <mxGeometry x="661.5" y="805" width="50" height="40" as="geometry" />
        </mxCell>
        <mxCell id="cXLPeXrp7or8tHIXApUD-157" value="&lt;font color=&quot;#ffffff&quot;&gt;NP:B&lt;/font&gt;" style="html=1;shape=mxgraph.sysml.nestedPort;fontStyle=1;whiteSpace=wrap;align=center;fillColor=#6000CC;strokeColor=#82b366;" vertex="1" parent="1">
          <mxGeometry x="591.5" y="725" width="59" height="30" as="geometry" />
        </mxCell>
        <mxCell id="cXLPeXrp7or8tHIXApUD-158" value="" style="resizable=0;html=1;align=right;verticalAlign=middle;labelPosition=left;verticalLabelPosition=top;labelBackgroundColor=none;fontSize=10" connectable="0" vertex="1" parent="cXLPeXrp7or8tHIXApUD-157">
          <mxGeometry y="6.999999999999999" as="geometry" />
        </mxCell>
        <mxCell id="cXLPeXrp7or8tHIXApUD-159" value="" style="resizable=0;html=1;align=right;verticalAlign=middle;labelPosition=left;verticalLabelPosition=top;labelBackgroundColor=none;fontSize=10" connectable="0" vertex="1" parent="cXLPeXrp7or8tHIXApUD-157">
          <mxGeometry y="15" as="geometry" />
        </mxCell>
        <mxCell id="cXLPeXrp7or8tHIXApUD-160" value="" style="resizable=0;html=1;align=right;verticalAlign=middle;labelPosition=left;verticalLabelPosition=top;labelBackgroundColor=none;fontSize=10" connectable="0" vertex="1" parent="cXLPeXrp7or8tHIXApUD-157">
          <mxGeometry y="23" as="geometry" />
        </mxCell>
        <mxCell id="cXLPeXrp7or8tHIXApUD-161" value="" style="resizable=0;html=1;align=left;verticalAlign=middle;labelPosition=left;verticalLabelPosition=top;labelBackgroundColor=none;fontSize=10" connectable="0" vertex="1" parent="cXLPeXrp7or8tHIXApUD-157">
          <mxGeometry x="8.112499999999999" y="5" as="geometry" />
        </mxCell>
        <mxCell id="cXLPeXrp7or8tHIXApUD-162" value="" style="endArrow=classic;html=1;rounded=0;strokeWidth=2;strokeColor=#00994D;" edge="1" parent="1">
          <mxGeometry width="50" height="50" relative="1" as="geometry">
            <mxPoint x="619.6" y="617" as="sourcePoint" />
            <mxPoint x="619.6" y="689" as="targetPoint" />
          </mxGeometry>
        </mxCell>
        <mxCell id="cXLPeXrp7or8tHIXApUD-163" value="" style="endArrow=classic;html=1;rounded=0;strokeWidth=2;strokeColor=#6600CC;entryX=0.251;entryY=-0.133;entryDx=0;entryDy=0;entryPerimeter=0;" edge="1" parent="1">
          <mxGeometry width="50" height="50" relative="1" as="geometry">
            <mxPoint x="600.19" y="621.99" as="sourcePoint" />
            <mxPoint x="598.999" y="723" as="targetPoint" />
          </mxGeometry>
        </mxCell>
        <mxCell id="cXLPeXrp7or8tHIXApUD-164" value="" style="endArrow=none;html=1;rounded=0;strokeWidth=3;strokeColor=#3333FF;" edge="1" parent="1">
          <mxGeometry width="50" height="50" relative="1" as="geometry">
            <mxPoint x="700" y="630" as="sourcePoint" />
            <mxPoint x="700" y="547" as="targetPoint" />
          </mxGeometry>
        </mxCell>
        <mxCell id="cXLPeXrp7or8tHIXApUD-165" value="" style="endArrow=none;html=1;rounded=0;strokeWidth=3;strokeColor=#3333FF;" edge="1" parent="1">
          <mxGeometry width="50" height="50" relative="1" as="geometry">
            <mxPoint x="588" y="630" as="sourcePoint" />
            <mxPoint x="700" y="630" as="targetPoint" />
          </mxGeometry>
        </mxCell>
        <mxCell id="cXLPeXrp7or8tHIXApUD-166" value="" style="endArrow=none;html=1;rounded=0;strokeWidth=3;strokeColor=#3333FF;" edge="1" parent="1">
          <mxGeometry width="50" height="50" relative="1" as="geometry">
            <mxPoint x="590" y="830" as="sourcePoint" />
            <mxPoint x="588" y="630" as="targetPoint" />
          </mxGeometry>
        </mxCell>
        <mxCell id="cXLPeXrp7or8tHIXApUD-167" value="" style="endArrow=classic;html=1;rounded=0;strokeWidth=2;strokeColor=#3333FF;entryX=0.995;entryY=0.63;entryDx=0;entryDy=0;entryPerimeter=0;" edge="1" parent="1" target="cXLPeXrp7or8tHIXApUD-126">
          <mxGeometry width="50" height="50" relative="1" as="geometry">
            <mxPoint x="589.6" y="830" as="sourcePoint" />
            <mxPoint x="589.6" y="902" as="targetPoint" />
          </mxGeometry>
        </mxCell>
        <mxCell id="cXLPeXrp7or8tHIXApUD-168" value="" style="endArrow=classic;html=1;rounded=0;strokeWidth=2;strokeColor=#3333FF;entryX=0.17;entryY=0.625;entryDx=0;entryDy=0;entryPerimeter=0;" edge="1" parent="1" target="cXLPeXrp7or8tHIXApUD-156">
          <mxGeometry width="50" height="50" relative="1" as="geometry">
            <mxPoint x="590" y="830" as="sourcePoint" />
            <mxPoint x="610" y="870" as="targetPoint" />
          </mxGeometry>
        </mxCell>
        <mxCell id="cXLPeXrp7or8tHIXApUD-169" value="&lt;b&gt;2&lt;/b&gt;" style="ellipse;whiteSpace=wrap;html=1;aspect=fixed;dashed=1;fillColor=#dae8fc;strokeColor=#6c8ebf;gradientColor=#E6E6E6;" vertex="1" parent="1">
          <mxGeometry x="638" y="300" width="30" height="30" as="geometry" />
        </mxCell>
        <mxCell id="cXLPeXrp7or8tHIXApUD-170" value="&lt;b&gt;3&lt;/b&gt;" style="ellipse;whiteSpace=wrap;html=1;aspect=fixed;dashed=1;fillColor=#dae8fc;strokeColor=#6c8ebf;gradientColor=#E6E6E6;" vertex="1" parent="1">
          <mxGeometry x="758" y="450" width="30" height="30" as="geometry" />
        </mxCell>
        <mxCell id="cXLPeXrp7or8tHIXApUD-171" value="&lt;b&gt;4&lt;/b&gt;" style="ellipse;whiteSpace=wrap;html=1;aspect=fixed;dashed=1;fillColor=#dae8fc;strokeColor=#6c8ebf;gradientColor=#E6E6E6;" vertex="1" parent="1">
          <mxGeometry x="439.5" y="302" width="30" height="30" as="geometry" />
        </mxCell>
        <mxCell id="cXLPeXrp7or8tHIXApUD-172" value="&lt;b&gt;5&lt;/b&gt;" style="ellipse;whiteSpace=wrap;html=1;aspect=fixed;dashed=1;fillColor=#dae8fc;strokeColor=#6c8ebf;gradientColor=#E6E6E6;" vertex="1" parent="1">
          <mxGeometry x="455" y="440" width="30" height="30" as="geometry" />
        </mxCell>
      </root>
    </mxGraphModel>
  </diagram>
</mxfile>
